PathFileType        4      (X/Y/Z)      C:\Users\pc\Desktop\IMUTRC\Sujet_07\Sujet_07_Tpose.trc         
DataRate	CameraRate	NumFrames	NumMarkers	Units	OrigDataRate	OrigDataStartFrame	OrigNumFrames
60.0	60.0	4	64	mm	60.0	55	146
Frame#	Time	pHipOrigin			pRightASI			pLeftASI			pRightCSI			pLeftCSI			pRightIschialTub			pLeftIschialTub			pSacrum			pL5SpinalProcess			pL3SpinalProcess			pT12SpinalProcess			pIJ			pT4SpinalProcess			pT8SpinalProcess			pPX			pC7SpinalProcess			pTopOfHead			pRightAuricularis			pLeftAuricularis			pBackOfHead			pRightAcromion			pLeftAcromion			pRightArmLatEpicondyle			pRightArmMedEpicondyle			pLeftArmLatEpicondyle			pLeftArmMedEpicondyle			pRightUlnarStyloid			pRightRadialStyloid			pRightOlecranon			pLeftUlnarStyloid			pLeftRadialStyloid			pLeftOlecranon			pRightTopOfHand			pRightPinky			pRightBallHand			pLeftTopOfHand			pLeftPinky			pLeftBallHand			pRightGreaterTrochanter			pRightKneeLatEpicondyle			pRightKneeMedEpicondyle			pRightPatella			pLeftGreaterTrochanter			pLeftKneeLatEpicondyle			pLeftKneeMedEpicondyle			pLeftPatella			pRightTibialTub			pRightLatMalleolus			pRightMedMalleolus			pLeftTibialTub			pLeftLatMalleolus			pLeftMedMalleolus			pRightHeelFoot			pRightFirstMetatarsal			pRightFifthMetatarsal			pRightPivotFoot			pRightHeelCenter			pRightToe			pLeftHeelFoot			pLeftFirstMetatarsal			pLeftFifthMetatarsal			pLeftPivotFoot			pLeftHeelCenter			pLeftToe			
		X1	Y1	Z1	X2	Y2	Z2	X3	Y3	Z3	X4	Y4	Z4	X5	Y5	Z5	X6	Y6	Z6	X7	Y7	Z7	X8	Y8	Z8	X9	Y9	Z9	X10	Y10	Z10	X11	Y11	Z11	X12	Y12	Z12	X13	Y13	Z13	X14	Y14	Z14	X15	Y15	Z15	X16	Y16	Z16	X17	Y17	Z17	X18	Y18	Z18	X19	Y19	Z19	X20	Y20	Z20	X21	Y21	Z21	X22	Y22	Z22	X23	Y23	Z23	X24	Y24	Z24	X25	Y25	Z25	X26	Y26	Z26	X27	Y27	Z27	X28	Y28	Z28	X29	Y29	Z29	X30	Y30	Z30	X31	Y31	Z31	X32	Y32	Z32	X33	Y33	Z33	X34	Y34	Z34	X35	Y35	Z35	X36	Y36	Z36	X37	Y37	Z37	X38	Y38	Z38	X39	Y39	Z39	X40	Y40	Z40	X41	Y41	Z41	X42	Y42	Z42	X43	Y43	Z43	X44	Y44	Z44	X45	Y45	Z45	X46	Y46	Z46	X47	Y47	Z47	X48	Y48	Z48	X49	Y49	Z49	X50	Y50	Z50	X51	Y51	Z51	X52	Y52	Z52	X53	Y53	Z53	X54	Y54	Z54	X55	Y55	Z55	X56	Y56	Z56	X57	Y57	Z57	X58	Y58	Z58	X59	Y59	Z59	X60	Y60	Z60	X61	Y61	Z61	X62	Y62	Z62	X63	Y63	Z63	X64	Y64	Z64	
55	0.9	0.7930323715695402	1002.4029	-4.343872359605224	66.52227787509788	1106.43776	139.92903488511553	78.14899450093961	1104.50706	-144.12042903604817	21.835562573874476	1177.0567	112.32849621020004	31.432373049425532	1175.42304	-121.27428712406366	-60.84688724602533	943.9622	52.07296019253067	-56.06206570136531	943.14537	-64.7791538279707	-68.95451236537781	1025.57127	-7.3992011720291595	-30.255958023685203	1117.65065	-6.407143471305919	-32.358251708375	1234.53206	-7.963883996992004	-51.91102609573467	1339.38375	-10.33518532915361	49.961003789380804	1595.79513	-10.940796960348669	-95.56332566277534	1535.12669	-15.816444611822257	-77.48503837816003	1443.27008	-13.267496702602372	79.81458604518045	1471.33944	-7.252578215330362	-105.80320090278484	1594.16146	-14.268600432959227	-41.70027377252941	1862.00851	-13.614747136447065	-30.529808953514966	1756.41424	53.02770025285925	-64.67374957281321	1763.46871	-87.58611982390147	-102.87503118846143	1762.72614	-3.7462591513518277	-73.42855615029066	1577.67628	174.11276997872773	-59.66420749757991	1575.81984	-203.19380122085957	-40.87355291852799	1504.23555	448.1720303407458	14.29595112771375	1473.8642	434.1504463042784	-34.12704623729189	1462.20576	-471.2377620047581	20.54517089296354	1432.50274	-454.24943983679805	77.81045614991848	1431.98293	680.7249365882312	69.11575561445812	1483.96323	693.111339672245	-12.319620345538908	1464.80478	431.3884883684328	-23.05679126568839	1380.74521	-717.1946260683175	-43.16169300776619	1430.27501	-725.8868547698586	1.21444756186321	1424.63143	-454.7776248802752	249.14813346162578	1429.53243	775.445274233513	179.2653093710215	1404.65615	715.8914761348377	114.66980758458118	1439.33443	685.1996271693587	17.975340569535376	1375.91847	-911.3834031497894	19.73675484601233	1354.161	-818.7905221698246	-2.928376260801258	1388.9878	-751.0184635326137	-8.008176643578523	971.06621	170.5540288226645	-55.75082512554418	529.97626	152.85050168133012	-51.970490729295584	526.26338	67.14419043742733	-5.700230476436438	526.11487	109.3782288000405	5.524832985514422	970.39789	-179.6191114342434	-52.00616312218451	530.19903	-168.93308316566154	-55.02207908082991	525.96635	-83.21416349392989	-5.6385641846355625	525.07526	-121.66962035047302	4.845194489860745	489.72866	111.60809697100848	-65.27744958300669	84.35659999999999	159.69761926628343	-62.27792075103414	81.38629	94.20512293053923	6.563096823259507	491.5851	-123.19951715287937	-43.11658391669579	84.28234000000002	-179.57780600747586	-45.2131282645801	80.71798	-114.16418467661882	-102.54497907994454	-7.138061680832742E-15	116.5733938275516	65.89518157663909	0.5197999999999917	135.9656775352845	39.01727203710951	3.638619999999987	210.73746245898997	74.03499302815315	2.301979999999989	179.93653053723114	-64.36250899699206	5.198029999999992	130.04353568539926	160.9817792166146	1.485149999999987	211.271319303988	-82.88626860439346	-0.07425999999999178	-134.45711152738943	84.06528056916319	-0.81682999999999	-163.4271570983234	53.01925320378538	2.5990100000000145	-236.4857803283153	89.7249003726308	0.8910900000000128	-207.83392614945228	-45.58755108465581	4.901000000000009	-150.05038532873448	174.77112697720014	-0.519799999999985	-244.04899162058234	
56	0.917	0.765851325084508	1002.4029	-4.445313406090256	66.39366444238186	1106.43776	139.85477988511553	78.18612450093961	1104.50706	-144.18474008253318	21.70694914115844	1177.0567	112.25424121020005	31.368070663194533	1175.49729	-121.31141212406366	-60.87405963225633	943.9622	51.97152414604564	-56.02493570136531	943.14537	-64.84346487445573	-69.01882341186284	1025.57127	-7.436331172029161	-30.3202604099162	1117.65065	-6.444268471305921	-32.48687380134507	1234.53206	-8.038143996992005	-51.975337142219715	1339.38375	-10.372315329153611	49.896692742895766	1595.79513	-10.97792696034867	-95.62763670926037	1535.12669	-15.853574611822255	-77.58647442464506	1443.27008	-13.240324316371382	79.75028365894946	1471.33944	-7.289703215330365	-105.86751194926988	1594.16146	-14.305730432959232	-41.7745337725294	1862.00851	-13.486125043477	-30.631244999999996	1756.41424	53.05487263909024	-64.77518561929823	1763.46871	-87.55894743767047	-102.91216118846143	1762.72614	-3.6819481048667897	-73.42855615029066	1577.67628	174.11276997872773	-59.76564354406496	1575.8941	-203.1666288346286	-40.809241872042946	1504.01277	448.2091603407458	14.29595112771375	1473.64143	434.1504463042784	-34.0627438510609	1462.20576	-471.20063700475805	20.609473279194503	1432.50274	-454.21231483679804	77.84758114991848	1431.61164	680.6606342020002	69.15288561445811	1483.59194	693.0470286257599	-12.282490345538918	1464.582	431.3241773219478	-23.09392126568838	1380.52244	-717.1303150218324	-43.134506961281204	1430.05224	-725.7854223836276	1.2787586083482552	1424.63143	-454.7404948802752	249.18526346162577	1429.08689	775.380963187028	179.30243937102148	1404.2106	715.8271650883528	114.74406758458116	1438.96314	685.0710050763886	17.77246347656535	1375.62144	-911.3290497170734	19.635313799527296	1353.86397	-818.7633411233396	-2.965501260801261	1388.76503	-750.9541611463827	-8.0724790298095	971.06621	170.5169038226645	-55.75082512554418	529.97626	152.85050168133012	-51.970490729295584	526.26338	67.14419043742733	-5.764541522921469	526.11487	109.3410988000405	5.524832985514422	970.39789	-179.6191114342434	-52.00616312218451	530.19903	-168.93308316566154	-55.02207908082991	525.96635	-83.21416349392989	-5.6385641846355625	525.07526	-121.66962035047302	4.882319489860741	489.72866	111.54379458477749	-65.27744958300669	84.35659999999999	159.69761926628343	-62.27792075103414	81.38629	94.20512293053923	6.563096823259507	491.5851	-123.19951715287937	-43.11658391669579	84.28234000000002	-179.57780600747586	-45.2131282645801	80.71798	-114.16418467661882	-102.54497907994454	-7.138061680832742E-15	116.5733938275516	65.89518157663909	0.5197999999999917	135.9656775352845	39.01727203710951	3.638619999999987	210.73746245898997	74.03499302815315	2.301979999999989	179.93653053723114	-64.36250899699206	5.198029999999992	130.04353568539926	160.9817792166146	1.485149999999987	211.271319303988	-82.88626860439346	-0.07425999999999178	-134.45711152738943	84.06528056916319	-0.81682999999999	-163.4271570983234	53.01925320378538	2.5990100000000145	-236.4857803283153	89.7249003726308	0.8910900000000128	-207.83392614945228	-45.58755108465581	4.901000000000009	-150.05038532873448	174.77112697720014	-0.519799999999985	-244.04899162058234	
57	0.933	0.765851325084508	1002.4029	-4.445313406090256	66.32935339589683	1106.51201	139.81764988511554	78.1218221147086	1104.58132	-144.22186508253318	21.642638094673423	1177.0567	112.21711121020006	31.340889616709504	1175.49729	-121.41285317054867	-60.90124067874137	943.9622	51.870083099560624	-56.05211674785034	943.14537	-64.94490592094078	-69.04600445834788	1025.57127	-7.537772218514193	-30.34744145640123	1117.65065	-6.545709517790953	-32.55117618757606	1234.53206	-8.075268996992005	-52.03963952845071	1339.38375	-10.409440329153611	49.79526035666478	1595.79513	-10.950740913863642	-95.72907775574541	1535.12669	-15.826393565337225	-77.65078547113009	1443.27008	-13.27745431637138	79.68597261246443	1471.33944	-7.326833215330363	-105.96895299575492	1594.16146	-14.278549386474191	-41.87597481901444	1862.00851	-13.458943996991968	-30.769816046485026	1756.41424	53.14636473206031	-64.81231561929823	1763.54297	-87.49463639118544	-102.97647223494646	1762.72614	-3.7190781048667874	-73.49286719677569	1577.67628	174.0756399787277	-59.82994593029598	1575.96836	-203.2037538346286	-40.772111872042956	1503.79	448.14484929426084	14.37021112771373	1473.41865	434.02182421130834	-33.89699175809085	1462.28002	-471.1906880512431	20.775220372164597	1432.57699	-454.202357223029	77.92184114991846	1431.24036	680.5320121090301	69.29144300068913	1483.22065	692.9555401930438	-12.245365345538914	1464.35923	431.25987493571677	-23.168176265688373	1380.37392	-717.0017015891164	-43.19881800776619	1429.90372	-725.8225523836276	1.3430696548333003	1424.70569	-454.7033648802752	249.22238846162577	1428.7156	775.316660800797	179.40388041750657	1403.83931	715.7999840418678	114.78119258458116	1438.59186	685.0067026901577	17.505278997364258	1375.32441	-911.3118126241033	19.36813432032625	1353.56694	-818.7461126906236	-3.066933647032272	1388.54226	-750.9269750998976	-8.09966007629454	971.14047	170.41546277617945	-55.81513617202921	529.97626	152.81337168133012	-51.93336572929558	526.26338	67.07988805119632	-5.727416522921473	526.11487	109.27679641380954	5.561962985514427	970.39789	-179.68342248072844	-51.969033122184506	530.19903	-168.9973942121466	-55.08638146706092	525.96635	-83.25128849392989	-5.6385641846355625	525.07526	-121.66962035047302	4.818017103629749	489.72866	111.50666958477748	-65.27744958300669	84.35659999999999	159.69761926628343	-62.27792075103414	81.38629	94.20512293053923	6.563096823259507	491.5851	-123.19951715287937	-43.11658391669579	84.28234000000002	-179.57780600747586	-45.2131282645801	80.79223	-114.16418467661882	-102.54497907994454	-7.138061680832742E-15	116.5733938275516	65.89518157663909	0.5197999999999917	135.9656775352845	39.01727203710951	3.638619999999987	210.73746245898997	74.03499302815315	2.301979999999989	179.93653053723114	-64.36250899699206	5.272289999999992	130.04353568539926	160.9817792166146	1.485149999999987	211.271319303988	-82.88626860439346	-0.07425999999999178	-134.45711152738943	84.06528056916319	-0.81682999999999	-163.4271570983234	53.01925320378538	2.5990100000000145	-236.4857803283153	89.7249003726308	0.8910900000000128	-207.83392614945228	-45.58755108465581	4.901000000000009	-150.05038532873448	174.73400197720017	-0.519799999999985	-243.98468923435144	
58	0.95	0.7015402785994758	1002.4029	-4.4824434060902565	66.26504234941179	1106.51201	139.78051988511552	78.1218221147086	1104.58132	-144.22186508253318	21.57832704818839	1177.0567	112.17998121020005	31.27657857022447	1175.49729	-121.44998317054868	-60.9655517252264	943.9622	51.832953099560626	-56.01499174785034	943.14537	-65.00920830717178	-69.11031550483291	1025.49701	-7.5749022185141905	-30.411752502886262	1117.65065	-6.582839517790952	-32.61548723406109	1234.60632	-8.112398996992003	-52.10395057493574	1339.38375	-10.446570329153609	49.730949310179746	1595.79513	-10.98787091386364	-95.7933801419764	1535.20095	-15.863518565337229	-77.77939890384611	1443.27008	-13.35170931637138	79.55735051949435	1471.33944	-7.4010932153303655	-106.03326404223995	1594.16146	-14.315679386474189	-41.913099819014434	1862.00851	-13.394641610760972	-30.871257092970062	1756.33999	53.17354577854534	-64.81231561929823	1763.54297	-87.49463639118544	-103.0779132814315	1762.72614	-3.691897058381761	-73.49286719677569	1577.60202	174.0756399787277	-59.931386976781	1575.96836	-203.17657278814355	-40.734981872042965	1503.56723	448.0805382477758	14.407336127713734	1473.19588	433.9575218250774	-33.795550711605784	1462.35428	-471.21786909772817	20.876661418649633	1432.72551	-454.2295382695141	78.06040719640356	1430.86907	680.4405286763141	69.43001404717415	1482.92362	692.8640481000738	-12.272537731769916	1464.13646	431.1584388892318	-23.269617312173466	1380.29967	-716.9745205426312	-43.23594800776618	1429.90372	-725.7582413371425	1.4073807013182886	1424.77995	-454.6662348802752	249.29664846162575	1428.1958	775.188038707827	179.44101041750656	1403.39377	715.7356729953827	114.91976363106625	1438.22057	684.9152105971875	17.23809951816321	1375.02738	-911.2945841913873	19.165260887610202	1353.34417	-818.6917455976535	-3.1683746935172508	1388.39374	-750.8997940534126	-8.163971122779571	971.14047	170.37833277617943	-55.77800617202922	529.97626	152.7490606348451	-51.99766811552658	526.26338	67.04276305119632	-5.727416522921473	526.11487	109.27679641380954	5.534781939029401	970.39789	-179.78486352721347	-51.969033122184506	530.19903	-168.9973942121466	-55.08638146706092	525.96635	-83.25128849392989	-5.6385641846355625	525.07526	-121.66962035047302	4.818017103629749	489.72866	111.50666958477748	-65.24031958300668	84.35659999999999	159.63330821979838	-62.27792075103414	81.38629	94.20512293053923	6.498785776774476	491.5851	-123.23664715287936	-43.11658391669579	84.28234000000002	-179.57780600747586	-45.2131282645801	80.79223	-114.16418467661882	-102.54497907994454	-7.138061680832742E-15	116.5733938275516	65.89518157663909	0.5197999999999917	135.9656775352845	39.01727203710951	3.638619999999987	210.73746245898997	74.03499302815315	2.301979999999989	179.93653053723114	-64.36250899699206	5.272289999999992	130.04353568539926	160.9817792166146	1.485149999999987	211.271319303988	-82.88626860439346	-0.07425999999999178	-134.45711152738943	84.06528056916319	-0.81682999999999	-163.4271570983234	53.01925320378538	2.5990100000000145	-236.4857803283153	89.6877753726308	0.8910900000000128	-207.76962376322126	-45.58755108465581	4.901000000000009	-150.05038532873448	174.73400197720017	-0.519799999999985	-243.98468923435144	
